<?xml version="1.0" encoding="UTF-8" standalone="no"?>
<!-- Created with Inkscape (http://www.inkscape.org/) -->

<svg
   xmlns:dc="http://purl.org/dc/elements/1.1/"
   xmlns:cc="http://creativecommons.org/ns#"
   xmlns:rdf="http://www.w3.org/1999/02/22-rdf-syntax-ns#"
   xmlns:svg="http://www.w3.org/2000/svg"
   xmlns="http://www.w3.org/2000/svg"
   xmlns:sodipodi="http://sodipodi.sourceforge.net/DTD/sodipodi-0.dtd"
   xmlns:inkscape="http://www.inkscape.org/namespaces/inkscape"
   width="64mm"
   height="64mm"
   viewBox="0 0 64 64"
   version="1.1"
   id="svg8"
   inkscape:version="0.92.3 (2405546, 2018-03-11)"
   sodipodi:docname="face.svg">
  <sodipodi:namedview
     id="base"
     pagecolor="#ffffff"
     bordercolor="#666666"
     borderopacity="1.0"
     inkscape:pageopacity="0.0"
     inkscape:pageshadow="2"
     inkscape:zoom="3"
     inkscape:cx="86.047709"
     inkscape:cy="136.61427"
     inkscape:document-units="mm"
     inkscape:current-layer="layer1"
     showgrid="false"
     borderlayer="true"
     inkscape:showpageshadow="false"
     inkscape:window-width="1920"
     inkscape:window-height="1017"
     inkscape:window-x="0"
     inkscape:window-y="30"
     inkscape:window-maximized="1"
     showguides="false"
     inkscape:snap-nodes="false"
     inkscape:snap-others="false"
     inkscape:snap-grids="false"
     inkscape:snap-to-guides="false" />
  <defs
     id="defs2" />
  <metadata
     id="metadata5">
    <rdf:RDF>
      <cc:Work
         rdf:about="">
        <dc:format>image/svg+xml</dc:format>
        <dc:type
           rdf:resource="http://purl.org/dc/dcmitype/StillImage" />
        <dc:title></dc:title>
      </cc:Work>
    </rdf:RDF>
  </metadata>
  <g
     transform="translate(0,-233)"
     id="layer1"
     inkscape:groupmode="layer"
     inkscape:label="Layer 1">
    <path
       id="chest"
       d="M20.103697 284.71259C21.651377 291.39173 24.704128 296.56579 32.764444 296.73229C43.478414 295.3198 43.653425 290.33766 44.874739 285.43619C44.874739 285.43619 32.985915 276.51464 32.985915 276.51464C32.985915 276.51464 20.103697 284.71259 20.103697 284.71259"
       style="stroke-linejoin:miter;stroke-opacity:1;fill-opacity:1;stroke:none;stroke-linecap:butt;stroke-width:0.0138610109275;fill:#a9a9a9" />
    <path
       style="opacity:1;stroke-linejoin:miter;vector-effect:none;stroke-opacity:1;fill-opacity:1;stroke-dashoffset:0;stroke-linecap:butt;stroke-miterlimit:4;stroke-dasharray:none;stroke-width:0.0138610105838;fill:#9d00d5"
       d="M24.597485 272.0921C24.597485 272.0921 40.859306 272.0921 40.859306 272.0921C40.859306 272.0921 40.859306 287.48134 40.859306 287.48134C40.859306 287.48134 24.597485 287.48134 24.597485 287.48134C24.597485 287.48134 24.597485 272.0921 24.597485 272.0921"
       id="neck1" />
    <path
       style="opacity:1;stroke-linejoin:miter;vector-effect:none;stroke-opacity:1;fill-opacity:1;stroke-dashoffset:0;stroke-linecap:butt;stroke-miterlimit:4;stroke-dasharray:none;stroke-width:0.0138610105838;fill:#9d00d5"
       d="M22.693663 272.0921C22.693663 272.0921 42.763128 272.0921 42.763128 272.0921C42.763128 272.0921 42.763128 287.48134 42.763128 287.48134C42.763128 287.48134 22.693663 287.48134 22.693663 287.48134C22.693663 287.48134 22.693663 272.0921 22.693663 272.0921"
       id="neck2" />
    <path
       id="face"
       d="M36.417052 247.89798C36.417052 247.89798 28.722434 248.05663 28.722434 248.05663C28.722434 248.05663 23.248944 251.6263 23.248944 251.6263C23.248944 251.6263 20.710513 255.90989 20.710513 255.90989C20.710513 255.90989 20.429154 262.66933 20.429154 262.66933C20.429154 262.66933 19.917254 260.90743 19.917254 260.90743C19.917254 260.90743 17.616801 260.82743 17.616801 260.82743C17.616801 260.82743 16.744216 262.65192 16.744216 262.65192C16.744216 262.65192 17.696128 267.72879 17.696128 267.72879C17.696128 267.72879 20.155231 269.87058 20.155231 269.87058C20.155231 269.87058 21.232948 268.98313 21.232948 268.98313C21.232948 268.98313 21.662424 271.77503 21.662424 271.77503C21.662424 271.77503 25.549396 278.83504 25.549396 278.83504C25.549396 278.83504 32.53008 281.37347 32.53008 281.37347C32.53008 281.37347 38.638178 278.43841 38.638178 278.43841C38.638178 278.43841 42.207846 275.02739 42.207846 275.02739C42.207846 275.02739 42.865385 269.36674 42.865385 269.36674C42.865385 269.36674 43.477061 269.87058 43.477061 269.87058C43.477061 269.87058 45.936166 267.72879 45.936166 267.72879C45.936166 267.72879 46.888077 262.65192 46.888077 262.65192C46.888077 262.65192 46.015492 260.82743 46.015492 260.82743C46.015492 260.82743 43.71504 260.90743 43.71504 260.90743C43.71504 260.90743 43.488837 261.68643 43.488837 261.68643C43.488837 261.68643 42.287173 253.13349 42.287173 253.13349C42.287173 253.13349 36.417052 247.89798 36.417052 247.89798"
       style="stroke-linejoin:miter;stroke-opacity:1;fill-opacity:1;stroke:none;stroke-linecap:butt;stroke-width:0.0138610109275;fill:#008bd5" />
    <path
       id="beard1"
       d="M24.959027 276.62708C24.959027 276.62708 27.693056 278.56736 27.693056 278.56736C27.693056 278.56736 32.190973 280.06667 32.190973 280.06667C32.190973 280.06667 36.865276 278.74375 36.865276 278.74375C36.865276 278.74375 39.158333 276.89167 39.158333 276.89167C39.158333 276.89167 40.216666 277.33264 40.216666 277.33264C40.216666 277.33264 36.5125 280.33125 36.5125 280.33125C36.5125 280.33125 32.808333 281.91875 32.808333 281.91875C32.808333 281.91875 26.19375 279.5375 26.19375 279.5375C26.19375 279.5375 23.8125 277.15625 23.8125 277.15625C23.8125 277.15625 24.959027 276.62708 24.959027 276.62708"
       style="stroke-linejoin:miter;stroke-opacity:1;fill-opacity:1;stroke:none;stroke-linecap:butt;stroke-width:0.0990010824548;fill:#0cce00" />
    <path
       id="beard2"
       d="M27.163887 269.21875C27.163887 269.21875 32.279167 267.54306 32.279167 267.54306C32.279167 267.54306 37.041667 268.86597 37.041667 268.86597C37.041667 268.86597 37.041667 270.0125 37.041667 270.0125C37.041667 270.0125 32.279167 268.60139 32.279167 268.60139C32.279167 268.60139 27.163887 270.45347 27.163887 270.45347C27.163887 270.45347 27.163887 269.21875 27.163887 269.21875"
       style="stroke-linejoin:miter;stroke-opacity:1;fill-opacity:1;stroke:none;stroke-linecap:butt;stroke-width:0.0990010824548;fill:#ffb457" />
    <path
       id="beard3"
       d="M20.6375 263.22153C20.6375 263.22153 21.254861 270.80625 21.254861 270.80625C21.254861 270.80625 25.047222 278.83194 25.047222 278.83194C25.047222 278.83194 29.809723 281.47778 29.809723 281.47778C29.809723 281.47778 34.307639 282.62431 34.307639 282.62431C34.307639 282.62431 39.422916 278.92014 39.422916 278.92014C39.422916 278.92014 42.245139 275.12778 42.245139 275.12778C42.245139 275.12778 42.245139 268.95417 42.245139 268.95417C42.245139 268.95417 43.47986 263.83889 43.47986 263.83889C43.47986 263.83889 42.509723 264.89722 42.509723 264.89722C42.509723 264.89722 40.922223 269.83611 40.922223 269.83611C40.922223 269.83611 32.102776 269.04236 32.102776 269.04236C32.102776 269.04236 23.371527 270.62986 23.371527 270.62986C23.371527 270.62986 21.43125 265.33819 21.43125 265.33819C21.43125 265.33819 20.6375 263.22153 20.6375 263.22153"
       style="opacity:1;stroke-linejoin:miter;vector-effect:none;stroke-opacity:1;fill-opacity:1;stroke-dashoffset:0;stroke:none;stroke-linecap:butt;stroke-miterlimit:4;stroke-dasharray:none;stroke-width:0.0990010824548;fill:#00d519" />
    <path
       id="hair1"
       d="M20.020138 260.84027C20.020138 260.84027 21.078476 254.2257 21.078476 254.2257C21.078476 254.2257 24.429865 250.08056 24.429865 250.08056C24.429865 250.08056 29.10417 247.52292 29.10417 247.52292C29.10417 247.52292 35.806947 247.43472 35.806947 247.43472C35.806947 247.43472 39.070143 248.66945 39.070143 248.66945C39.070143 248.66945 43.127087 254.1375 43.127087 254.1375C43.127087 254.1375 43.656253 261.54583 43.656253 261.54583C43.656253 261.54583 42.862503 261.63403 42.862503 261.63403C42.862503 261.63403 41.715977 253.78472 41.715977 253.78472C41.715977 253.78472 36.953477 249.02222 36.953477 249.02222C36.953477 249.02222 31.48542 248.14028 31.48542 248.14028C31.48542 248.14028 26.370143 249.55139 26.370143 249.55139C26.370143 249.55139 23.283337 253.07917 23.283337 253.07917C23.283337 253.07917 21.872226 255.46042 21.872226 255.46042C21.872226 255.46042 20.990282 261.10486 20.990282 261.10486C20.990282 261.10486 20.020138 260.84027 20.020138 260.84027"
       style="opacity:1;stroke-linejoin:miter;vector-effect:none;stroke-opacity:1;fill-opacity:1;stroke-dashoffset:0;stroke:none;stroke-linecap:butt;stroke-miterlimit:4;stroke-dasharray:none;stroke-width:0.0990010824548;fill:#d5cc00" />
    <path
       style="stroke-linejoin:miter;stroke-opacity:1;fill-opacity:1;stroke:none;stroke-linecap:butt;stroke-width:0.0990010824548;fill:#00d519"
       d="M42.862499 261.19306C42.862499 261.19306 45.684723 258.28264 45.684723 258.28264C45.684723 258.28264 47.360416 253.78472 47.360416 253.78472C47.360416 253.78472 42.950693 244.87709 42.950693 244.87709C42.950693 244.87709 31.485416 240.73195 31.485416 240.73195C31.485416 240.73195 23.988889 242.67222 23.988889 242.67222C23.988889 242.67222 17.374305 249.90417 17.374305 249.90417C17.374305 249.90417 17.550694 257.84167 17.550694 257.84167C17.550694 257.84167 20.813889 261.72222 20.813889 261.72222C20.813889 261.72222 21.519444 255.63681 21.519444 255.63681C21.519444 255.63681 25.223611 250.9625 25.223611 250.9625C25.223611 250.9625 31.132639 248.40486 31.132639 248.40486C31.132639 248.40486 35.806943 249.02222 35.806943 249.02222C35.806943 249.02222 40.745833 252.90278 40.745833 252.90278C40.745833 252.90278 42.245139 257.57708 42.245139 257.57708C42.245139 257.57708 42.862499 261.19306 42.862499 261.19306"
       id="hair2" />
    <path
       id="hair3"
       d="M32.719968 245.49433C32.719968 245.49433 26.458333 247.34641 26.458333 247.34641C26.458333 247.34641 26.899134 250.08061 26.899134 250.08061C26.899134 250.08061 28.222051 249.11064 28.222051 249.11064C28.222051 249.11064 32.54375 248.31689 32.54375 248.31689C32.54375 248.31689 36.424134 248.75769 36.424134 248.75769C36.424134 248.75769 39.775865 251.66811 39.775865 251.66811C39.775865 251.66811 41.715801 257.48894 41.715801 257.48894C41.715801 257.48894 41.892532 263.66273 41.892532 263.66273C41.892532 263.66273 43.920833 261.45769 43.920833 261.45769C43.920833 261.45769 44.45 257.31273 44.45 257.31273C44.45 257.31273 42.8625 251.93269 42.8625 251.93269C42.8625 251.93269 38.805384 246.55266 38.805384 246.55266C38.805384 246.55266 32.719968 245.49433 32.719968 245.49433M24.694617 249.55144C24.694617 249.55144 20.6375 253.16724 20.6375 253.16724C20.6375 253.16724 19.755383 256.78356 19.755383 256.78356C19.755383 256.78356 20.813717 260.75231 20.813717 260.75231C20.813717 260.75231 21.43125 255.28391 21.43125 255.28391C21.43125 255.28391 22.6658 252.72644 22.6658 252.72644C22.6658 252.72644 24.782467 251.05058 24.782467 251.05058C24.782467 251.05058 26.282117 249.90439 26.282117 249.90439C26.282117 249.90439 24.694617 249.55144 24.694617 249.55144"
       style="opacity:1;stroke-linejoin:miter;vector-effect:none;stroke-opacity:1;fill-opacity:1;stroke-dashoffset:0;stroke:none;stroke-linecap:butt;stroke-miterlimit:4;stroke-dasharray:none;stroke-width:0.0990010824548;fill:#af00d5" />
    <path
       id="hair4"
       d="M20.725694 257.22431C20.725694 257.22431 22.930555 249.375 22.930555 249.375C22.930555 249.375 26.722916 244.78889 26.722916 244.78889C26.722916 244.78889 33.16111 243.28959 33.16111 243.28959C33.16111 243.28959 38.805556 244.87709 38.805556 244.87709C38.805556 244.87709 41.715973 249.72778 41.715973 249.72778C41.715973 249.72778 43.391666 258.81181 43.391666 258.81181C43.391666 258.81181 41.89236 254.40208 41.89236 254.40208C41.89236 254.40208 39.599306 250.78611 39.599306 250.78611C39.599306 250.78611 35.454166 248.05209 35.454166 248.05209C35.454166 248.05209 29.633333 248.40486 29.633333 248.40486C29.633333 248.40486 24.077083 251.57986 24.077083 251.57986C24.077083 251.57986 22.225 253.78472 22.225 253.78472C22.225 253.78472 20.725694 257.22431 20.725694 257.22431"
       style="opacity:1;stroke-linejoin:miter;vector-effect:none;stroke-opacity:1;fill-opacity:1;stroke-dashoffset:0;stroke:none;stroke-linecap:butt;stroke-miterlimit:4;stroke-dasharray:none;stroke-width:0.0990010824548;fill:#00d519" />
  </g>
</svg>
