<?xml version="1.0" encoding="UTF-8" standalone="no"?>
<!-- Created with Inkscape (http://www.inkscape.org/) -->

<svg
   xmlns:dc="http://purl.org/dc/elements/1.1/"
   xmlns:cc="http://creativecommons.org/ns#"
   xmlns:rdf="http://www.w3.org/1999/02/22-rdf-syntax-ns#"
   xmlns:svg="http://www.w3.org/2000/svg"
   xmlns="http://www.w3.org/2000/svg"
   xmlns:sodipodi="http://sodipodi.sourceforge.net/DTD/sodipodi-0.dtd"
   xmlns:inkscape="http://www.inkscape.org/namespaces/inkscape"
   width="81.626534"
   height="137.12679"
   viewBox="0 0 21.59702 36.281463"
   version="1.1"
   id="svg8"
   sodipodi:docname="jerseys.svg"
   inkscape:version="0.92.3 (2405546, 2018-03-11)">
  <sodipodi:namedview
     id="base"
     pagecolor="#ffffff"
     bordercolor="#666666"
     borderopacity="1.0"
     inkscape:pageopacity="0.0"
     inkscape:pageshadow="2"
     inkscape:zoom="8"
     inkscape:cx="-0.726172"
     inkscape:cy="106.56476"
     inkscape:document-units="mm"
     inkscape:current-layer="svg8"
     showgrid="false"
     units="px"
     borderlayer="true"
     inkscape:showpageshadow="false"
     inkscape:window-width="1920"
     inkscape:window-height="1017"
     inkscape:window-x="0"
     inkscape:window-y="30"
     inkscape:window-maximized="1"
     fit-margin-top="2"
     fit-margin-left="2"
     fit-margin-right="2"
     fit-margin-bottom="2" />
  <defs
     id="defs2" />
  <metadata
     id="metadata5">
    <rdf:RDF>
      <cc:Work
         rdf:about="">
        <dc:format>image/svg+xml</dc:format>
        <dc:type
           rdf:resource="http://purl.org/dc/dcmitype/StillImage" />
        <dc:title />
      </cc:Work>
    </rdf:RDF>
  </metadata>
  <g
     transform="translate(2.1830153,-262.10779)"
     id="layer1"
     inkscape:groupmode="layer"
     inkscape:label="Layer 1">
    <path
       id="shorts-f1"
       d="M2.2820312 286.54894C2.2820312 286.54894 3.4395833 276.69322 3.4395833 276.69322C3.4395833 276.69322 13.956771 276.75932 13.956771 276.75932C13.956771 276.75932 15.015104 286.5489 15.015104 286.5489C15.015104 286.5489 9.6572915 286.5158 9.6572915 286.5158C9.6572915 286.5158 8.5328124 282.84471 8.5328124 282.84471C8.5328124 282.84471 7.5075519 286.48273 7.5075519 286.48273C7.5075519 286.48273 2.2820312 286.54894 2.2820312 286.54894"
       style="stroke-linejoin:round;stroke-opacity:1;fill-opacity:1;stroke:none;stroke-linecap:round;stroke-miterlimit:4;stroke-dasharray:none;stroke-width:0.0991569909264;fill:#008200" />
    <path
       style="stroke-linejoin:round;stroke-opacity:1;fill-opacity:1;stroke:#000000;stroke-linecap:round;stroke-miterlimit:4;stroke-dasharray:none;stroke-width:0.0991569909264;fill:none"
       d="M2.2820312 286.54894C2.2820312 286.54894 3.4395833 276.69322 3.4395833 276.69322C3.4395833 276.69322 13.956771 276.75932 13.956771 276.75932C13.956771 276.75932 15.015104 286.5489 15.015104 286.5489C15.015104 286.5489 9.6572913 286.5158 9.6572913 286.5158C9.6572913 286.5158 8.5328123 282.84471 8.5328123 282.84471C8.5328123 282.84471 7.5075523 286.48273 7.5075523 286.48273C7.5075523 286.48273 2.2820312 286.54894 2.2820312 286.54894"
       id="shorts-s" />
    <path
       id="socks-f1"
       d="M3.175 289.12863C3.175 289.12863 3.7703125 297.5953 3.7703125 297.5953C3.7703125 297.5953 7.2760416 297.72759 7.2760416 297.72759C7.2760416 297.72759 7.2760416 289.19478 7.2760416 289.19478C7.2760416 289.19478 3.175 289.12863 3.175 289.12863M14.155208 289.12863C14.155208 289.12863 10.054167 289.19473 10.054167 289.19473C10.054167 289.19473 10.054167 297.72754 10.054167 297.72754C10.054167 297.72754 13.559896 297.5953 13.559896 297.5953C13.559896 297.5953 14.155208 289.12863 14.155208 289.12863"
       style="stroke-linejoin:round;stroke-opacity:1;fill-opacity:1;stroke:none;stroke-linecap:round;stroke-miterlimit:4;stroke-dasharray:none;stroke-width:0.0991569909264;fill:#00c700" />
    <path
       style="stroke-linejoin:round;stroke-opacity:1;fill-opacity:1;stroke:#000000;stroke-linecap:round;stroke-miterlimit:4;stroke-dasharray:none;stroke-width:0.0991569909264;fill:none"
       d="M3.175 289.12863C3.175 289.12863 3.7703125 297.5953 3.7703125 297.5953C3.7703125 297.5953 7.2760416 297.72759 7.2760416 297.72759C7.2760416 297.72759 7.2760416 289.19478 7.2760416 289.19478C7.2760416 289.19478 3.175 289.12863 3.175 289.12863M14.155208 289.12863C14.155208 289.12863 10.054167 289.19473 10.054167 289.19473C10.054167 289.19473 10.054167 297.72754 10.054167 297.72754C10.054167 297.72754 13.559896 297.5953 13.559896 297.5953C13.559896 297.5953 14.155208 289.12863 14.155208 289.12863"
       id="socks-s" />
    <path
       style="stroke-linejoin:round;stroke-opacity:1;fill-opacity:1;stroke:none;stroke-linecap:round;stroke-miterlimit:4;stroke-dasharray:none;stroke-width:0.0991569909264;fill:#005b90"
       d="M3.571875 262.80259C3.571875 262.80259 -1.5213541 267.69738 -1.5213541 267.69738C-1.5213541 267.69738 1.9182291 271.26926 1.9182291 271.26926C1.9182291 271.26926 3.4395833 269.61561 3.4395833 269.61561C3.4395833 269.61561 3.571875 262.80259 3.571875 262.80259"
       id="shirt-fl1" />
    <path
       style="stroke-linejoin:round;stroke-opacity:1;fill-opacity:1;stroke:none;stroke-linecap:round;stroke-miterlimit:4;stroke-dasharray:none;stroke-width:0.0991569909264;fill:#005b90"
       d="M13.758333 269.54947C13.758333 269.54947 15.213542 271.26926 15.213542 271.26926C15.213542 271.26926 18.752344 267.89582 18.752344 267.89582C18.752344 267.89582 13.923698 262.86874 13.923698 262.86874C13.923698 262.86874 13.758333 269.54947 13.758333 269.54947"
       id="shirt-fr1" />
    <path
       id="shirt-ftop"
       d="M3.571875 262.80259C3.571875 262.80259 3.4395833 267.69739 3.4395833 267.69739C3.4395833 267.69739 13.824479 267.69734 13.824479 267.69734C13.824479 267.69734 13.923699 262.86874 13.923699 262.86874C13.923699 262.86874 10.847918 262.86869 10.847918 262.86869C10.847918 262.86869 8.7312509 264.81999 8.7312509 264.81999C8.7312509 264.81999 6.6145842 262.76946 6.6145842 262.76946C6.6145842 262.76946 3.571875 262.80259 3.571875 262.80259"
       style="stroke-linejoin:round;stroke-opacity:1;fill-opacity:1;stroke:none;stroke-linecap:round;stroke-miterlimit:4;stroke-dasharray:none;stroke-width:0.0991569909264;fill:#d84f90" />
    <path
       id="shirt-fleft"
       d="M3.571875 262.80259C3.571875 262.80259 3.4395833 269.61561 3.4395833 269.61561C3.4395833 269.61561 3.4395833 276.69322 3.4395833 276.69322C3.4395833 276.69322 8.6981772 276.72632 8.6981772 276.72632C8.6981772 276.72632 8.7312502 264.82004 8.7312502 264.82004C8.7312502 264.82004 6.6145835 262.76951 6.6145835 262.76951C6.6145835 262.76951 3.571875 262.80259 3.571875 262.80259"
       style="stroke-linejoin:round;stroke-opacity:1;fill-opacity:1;stroke:none;stroke-linecap:round;stroke-miterlimit:4;stroke-dasharray:none;stroke-width:0.0991569909264;fill:#003690" />
    <path
       style="stroke-linejoin:round;stroke-opacity:1;fill-opacity:1;stroke:none;stroke-linecap:round;stroke-miterlimit:4;stroke-dasharray:none;stroke-width:0.0991569909264;fill:#00d590"
       d="M3.571875 262.80259C3.571875 262.80259 3.4395833 269.61561 3.4395833 269.61561C3.4395833 269.61561 3.4395833 276.69322 3.4395833 276.69322C3.4395833 276.69322 13.956771 276.75932 13.956771 276.75932C13.956771 276.75932 13.758333 269.54947 13.758333 269.54947C13.758333 269.54947 13.923698 262.86874 13.923698 262.86874C13.923698 262.86874 10.847917 262.86869 10.847917 262.86869C10.847917 262.86869 8.7312499 264.81999 8.7312499 264.81999C8.7312499 264.81999 6.6145832 262.76946 6.6145832 262.76946C6.6145832 262.76946 3.571875 262.80259 3.571875 262.80259"
       id="shirt-fc1" />
    <path
       id="shirt-fl2"
       d="M-0.9921875 267.16822C-0.9921875 267.16822 -1.5213541 267.69738 -1.5213541 267.69738C-1.5213541 267.69738 1.9182291 271.26926 1.9182291 271.26926C1.9182291 271.26926 2.38125 270.77316 2.38125 270.77316C2.38125 270.77316 -0.9921875 267.16822 -0.9921875 267.16822"
       style="stroke-linejoin:round;stroke-opacity:1;fill-opacity:1;stroke:none;stroke-linecap:round;stroke-miterlimit:4;stroke-dasharray:none;stroke-width:0.0991569909264;fill:#009013" />
    <path
       style="stroke-linejoin:round;stroke-opacity:1;fill-opacity:1;stroke:none;stroke-linecap:round;stroke-miterlimit:4;stroke-dasharray:none;stroke-width:0.0991569909264;fill:#009013"
       d="M18.223177 267.36666C18.223177 267.36666 18.752344 267.89582 18.752344 267.89582C18.752344 267.89582 15.213542 271.26926 15.213542 271.26926C15.213542 271.26926 14.816667 270.74009 14.816667 270.74009C14.816667 270.74009 18.223177 267.36666 18.223177 267.36666"
       id="shirt-fr2" />
    <path
       id="shirt-fstripe1"
       d="M6.97818250125 263.121681576C6.97818250125 263.121681576 6.97818250125 276.715683828 6.97818250125 276.715683828C6.97818250125 276.715683828 10.5500574562 276.737903537 10.5500574562 276.737903537C10.5500574562 276.737903537 10.5500574562 263.142868932 10.5500574562 263.142868932C10.5500574562 263.142868932 8.7310470625 264.819769133 8.7310470625 264.819769133C8.7310470625 264.819769133 6.97818250125 263.121681576 6.97818250125 263.121681576"
       style="stroke-linejoin:round;stroke-opacity:1;fill-opacity:1;stroke:none;stroke-linecap:round;stroke-miterlimit:4;stroke-dasharray:none;stroke-width:0.0991569881571;fill:#d50071" />
    <path
       id="shirt-fstripe2"
       d="M6.6143804225 262.769248325C6.6143804225 262.769248325 5.52297418625 262.781133937 5.52297418625 262.781133937C5.52297418625 262.781133937 5.52297418625 276.706381872 5.52297418625 276.706381872C5.52297418625 276.706381872 7.738859575 276.720333351 7.738859575 276.720333351C7.738859575 276.720333351 7.738859575 263.858587504 7.738859575 263.858587504C7.738859575 263.858587504 6.6143804225 262.769248325 6.6143804225 262.769248325M10.8477137025 262.868467074C10.8477137025 262.868467074 9.7893803825 263.844118103 9.7893803825 263.844118103C9.7893803825 263.844118103 9.7893803825 276.733253749 9.7893803825 276.733253749C9.7893803825 276.733253749 12.0052657712 276.746689291 12.0052657712 276.746689291C12.0052657712 276.746689291 12.0052657712 262.868467074 12.0052657712 262.868467074C12.0052657712 262.868467074 10.8477137025 262.868467074 10.8477137025 262.868467074"
       style="stroke-linejoin:round;stroke-opacity:1;fill-opacity:1;stroke:none;stroke-linecap:round;stroke-miterlimit:4;stroke-dasharray:none;stroke-width:0.0991569881571;fill:#9d00d5" />
    <path
       id="shirt-fcollar"
       d="M6.61458325 262.769517921C6.61458325 262.769517921 5.82961822031 262.778302908 5.82961822031 262.778302908C5.82961822031 262.778302908 8.76432280625 265.713007468 8.76432280625 265.713007468C8.76432280625 265.713007468 11.6644042822 262.86873667 11.6644042822 262.86873667C11.6644042822 262.86873667 10.84791653 262.86873667 10.84791653 262.86873667C10.84791653 262.86873667 8.73124989 264.820038729 8.73124989 264.820038729C8.73124989 264.820038729 6.61458325 262.769517921 6.61458325 262.769517921"
       style="stroke-linejoin:round;stroke-opacity:1;fill-opacity:1;stroke:none;stroke-linecap:round;stroke-miterlimit:4;stroke-dasharray:none;stroke-width:0.0991569881571;fill:#7800d5" />
    <path
       id="shirt-s"
       d="M3.571875 262.80259C3.571875 262.80259 -1.5213541 267.69738 -1.5213541 267.69738C-1.5213541 267.69738 1.9182291 271.26926 1.9182291 271.26926C1.9182291 271.26926 3.4395833 269.61561 3.4395833 269.61561C3.4395833 269.61561 3.4395833 276.69322 3.4395833 276.69322C3.4395833 276.69322 13.956771 276.75932 13.956771 276.75932C13.956771 276.75932 13.758333 269.54947 13.758333 269.54947C13.758333 269.54947 15.213542 271.26926 15.213542 271.26926C15.213542 271.26926 18.752344 267.89582 18.752344 267.89582C18.752344 267.89582 13.923698 262.86874 13.923698 262.86874C13.923698 262.86874 10.847917 262.86869 10.847917 262.86869C10.847917 262.86869 8.7312503 264.81999 8.7312503 264.81999C8.7312503 264.81999 6.6145833 262.76946 6.6145833 262.76946C6.6145833 262.76946 3.571875 262.80259 3.571875 262.80259"
       style="stroke-linejoin:round;stroke-opacity:1;fill-opacity:1;stroke:#000000;stroke-linecap:round;stroke-miterlimit:4;stroke-dasharray:none;stroke-width:0.0991569909264;fill:none" />
  </g>
</svg>
